<?xml version="1.0" encoding="UTF-8"?>
<svg width="160px" height="175px" viewBox="0 0 160 175" version="1.1" xmlns="http://www.w3.org/2000/svg" xmlns:xlink="http://www.w3.org/1999/xlink">
    <!-- Generator: Sketch 41.2 (35397) - http://www.bohemiancoding.com/sketch -->
    <title>Proof</title>
    <desc>Created with Sketch.</desc>
    <defs>
        <polygon id="path-1" points="88.8965583 0.295608464 0.313773916 0.295608464 0.313773916 128.258356 88.8965583 128.258356"></polygon>
    </defs>
    <g id="Components" stroke="none" stroke-width="1" fill="none" fill-rule="evenodd">
        <g id="_carousel-desktop" transform="translate(-399.000000, -1144.000000)">
            <g id="3" transform="translate(101.000000, 1104.000000)">
                <g id="Proof" transform="translate(298.083333, 40.000000)">
                    <path d="M84.332599,174.747028 C40.3960835,177.29845 2.70337755,151.364437 0.139677454,107.63834 C-2.42402264,63.9122418 30.8232526,18.9644779 74.7597681,16.4130556 C118.693758,13.8616334 154.769943,22.0965686 159.243158,98.4004316 C161.806858,142.126529 128.269114,172.195606 84.332599,174.747028" id="Fill-1" fill="#FBC506"></path>
                    <path d="M77.7248198,139.240532 C69.9655226,139.240532 61.7187435,137.513608 61.7187435,134.311134 C61.7187435,132.679732 63.9288298,131.277078 67.9423465,130.359571 C68.2100826,130.301756 68.4778188,130.465147 68.5384383,130.731601 C68.6015836,131.000569 68.4323542,131.267023 68.164618,131.327352 C64.8532773,132.083981 62.7139137,133.252859 62.7139137,134.311134 C62.7139137,136.173797 68.879423,138.247614 77.7248198,138.247614 C79.8843899,138.247614 81.9732371,138.121928 83.933268,137.875583 C86.2898514,137.576451 88.3584922,137.1089 89.9118671,136.523204 C91.7051943,135.847014 92.7357259,135.040111 92.7357259,134.311134 C92.7357259,133.403682 91.0308022,132.023652 86.2292319,131.106145 C85.9589699,131.053357 85.782163,130.794444 85.8326793,130.525477 C85.8857213,130.256509 86.1458801,130.080549 86.416142,130.130823 C92.7811906,131.344948 93.7308962,133.270455 93.7308962,134.311134 C93.7308962,135.510176 92.5336609,136.596102 90.2654809,137.450765 C88.6388574,138.064112 86.4944422,138.551773 84.0570328,138.858447 C82.0591148,139.112332 79.9273287,139.240532 77.7248198,139.240532" id="Fill-3" fill="#FFFFFF"></path>
                    <path d="M119.029186,147.398547 C118.829646,147.398547 118.64021,147.277889 118.564436,147.081819 C118.465929,146.82542 118.59222,146.538856 118.849853,146.438307 C125.204798,144.000002 128.705575,141.043872 128.705575,138.115392 C128.705575,133.510263 120.072346,129.00317 106.172798,126.351199 C105.902536,126.298411 105.725729,126.039498 105.776245,125.770531 C105.829287,125.501563 106.089446,125.325603 106.359708,125.375877 C121.196333,128.206322 129.703271,132.849156 129.703271,138.115392 C129.703271,141.531533 126.073678,144.731494 119.208518,147.365869 C119.150425,147.388492 119.089805,147.398547 119.029186,147.398547" id="Fill-5" fill="#FFFFFF"></path>
                    <path d="M40.2205395,148.694871 C40.1725491,148.694871 40.1220328,148.687329 40.0740424,148.672247 C30.8346188,145.864426 25.7476316,142.113961 25.7476316,138.114638 C25.7476316,133.363714 32.9487242,128.992361 45.5070659,126.12421 C45.7773279,126.063881 46.0425383,126.229787 46.1056836,126.49624 C46.1663031,126.762694 45.9995994,127.029148 45.7318633,127.091991 C33.8428619,129.806805 26.7428019,133.9293 26.7428019,138.114638 C26.7428019,141.588594 31.70855,145.092715 40.3670367,147.724576 C40.6297212,147.805015 40.7787442,148.081524 40.6979182,148.34295 C40.632247,148.556616 40.4352336,148.694871 40.2205395,148.694871" id="Fill-7" fill="#FFFFFF"></path>
                    <path d="M77.7248198,146.660268 C77.4495062,146.660268 77.2272347,146.439061 77.2272347,146.165066 C77.2272347,145.891071 77.4495062,145.66735 77.7248198,145.66735 C79.707583,145.66735 81.6979235,145.61959 83.6402737,145.526582 C91.7380298,145.134443 99.1411874,143.932886 104.488333,142.140606 C109.719292,140.386032 112.598719,138.224236 112.598719,136.049871 C112.598719,132.965541 106.713575,129.926458 97.2417761,128.119096 C96.9715142,128.066308 96.7947073,127.807395 96.8477493,127.538427 C96.8982656,127.26946 97.1584243,127.093499 97.4312121,127.143774 C107.703693,129.104473 113.596415,132.349681 113.596415,136.049871 C113.596415,138.721952 110.557862,141.152716 104.806586,143.080736 C99.3735622,144.900667 91.8744237,146.122333 83.6882641,146.516987 C81.7307591,146.612508 79.7227378,146.660268 77.7248198,146.660268" id="Fill-9" fill="#FFFFFF"></path>
                    <path d="M65.680481,146.058736 C65.6628003,146.058736 65.6451196,146.058736 65.6274389,146.056222 C51.1848407,144.560561 41.8544879,140.634136 41.8544879,136.049117 C41.8544879,132.658114 46.7192035,129.676846 55.5519713,127.658332 C55.8222332,127.598002 56.0874436,127.763908 56.1505889,128.032875 C56.2112084,128.299329 56.0445048,128.565783 55.7767686,128.626112 C47.6815383,130.476208 42.8496582,133.251351 42.8496582,136.049117 C42.8496582,139.965487 52.260837,143.673219 65.7309973,145.068332 C66.0063109,145.098496 66.2033243,145.342327 66.1755403,145.613808 C66.1502822,145.870207 65.9330623,146.058736 65.680481,146.058736" id="Fill-11" fill="#FFFFFF"></path>
                    <g id="Group-15" transform="translate(36.181949, 0.589215)">
                        <mask id="mask-2" fill="white">
                            <use xlink:href="#path-1"></use>
                        </mask>
                        <g id="Clip-14"></g>
                        <path d="M0.313773916,44.3731238 C0.313773916,68.715954 44.6039032,128.258356 44.6039032,128.258356 C44.6039032,128.258356 88.8965583,68.715954 88.8965583,44.3731238 C88.8965583,20.0302936 69.0664012,0.295105721 44.6039032,0.295105721 C20.143931,0.295105721 0.313773916,20.0302936 0.313773916,44.3731238" id="Fill-13" fill="#FFFFFF" mask="url(#mask-2)"></path>
                    </g>
                    <path d="M77.2610806,127.202595 L76.6599371,126.760181 C76.7660213,126.616899 87.4577873,112.208276 98.0106336,95.1225454 C107.729962,79.3841666 119.318391,58.0929882 119.318391,46.047259 C119.318391,22.8029229 100.316701,3.89223397 76.9605088,3.89223397 L76.9605088,3.1481739 C100.728408,3.1481739 120.066032,22.3931871 120.066032,46.047259 C120.066032,55.8582943 112.859888,72.501611 98.6446126,95.5171988 C88.0766114,112.63058 77.3671647,127.059313 77.2610806,127.202595" id="Fill-16" fill="#FBC506"></path>
                    <path d="M59.2846176,43.8751566 C59.2846176,56.230073 69.349982,66.247233 81.7643524,66.247233 C94.1812486,66.247233 104.244087,56.230073 104.244087,43.8751566 C104.244087,31.5202402 94.1812486,21.5030801 81.7643524,21.5030801 C69.349982,21.5030801 59.2846176,31.5202402 59.2846176,43.8751566" id="Fill-18" fill="#FBC506"></path>
                    <path d="M77.7945323,4.23334529 C53.8548776,4.23334529 34.3758085,23.6166129 34.3758085,47.4441312 C34.3758085,67.6418429 65.7615596,113.077268 75.3798551,126.520624 C75.9431114,127.307417 76.8246201,127.759886 77.7945323,127.759886 C78.7644444,127.759886 79.6459531,127.307417 80.2092094,126.520624 C89.8275049,113.077268 121.213256,67.6443566 121.213256,47.4441312 C121.213256,23.6166129 101.734187,4.23334529 77.7945323,4.23334529 M77.7945323,129.496864 C76.2512606,129.496864 74.8544861,128.777941 73.9578225,127.528624 C68.6940284,120.168462 58.520054,105.508468 49.5458408,90.0239743 C38.3211282,70.655789 32.6304717,56.3301189 32.6304717,47.4441312 C32.6304717,22.6588869 52.8925429,2.49636722 77.7945323,2.49636722 C102.699047,2.49636722 122.958593,22.6588869 122.958593,47.4441312 C122.958593,56.3301189 117.267936,70.655789 106.043224,90.0239743 C97.0690105,105.510981 86.8950362,120.168462 81.6287163,127.528624 C80.7345785,128.777941 79.337804,129.496864 77.7945323,129.496864" id="Fill-20" fill="#434143"></path>
                    <path d="M77.7945323,25.0816068 C65.8802728,25.0816068 56.1862029,34.7292506 56.1862029,46.5864511 C56.1862029,58.4436517 65.8802728,68.0887817 77.7945323,68.0887817 C89.7087917,68.0887817 99.4028617,58.4436517 99.4028617,46.5864511 C99.4028617,34.7292506 89.7087917,25.0816068 77.7945323,25.0816068 M77.7945323,69.8257598 C64.9179381,69.8257598 54.4408662,59.4013776 54.4408662,46.5864511 C54.4408662,33.7715246 64.9179381,23.3446288 77.7945323,23.3446288 C90.6711265,23.3446288 101.148198,33.7715246 101.148198,46.5864511 C101.148198,59.4013776 90.6711265,69.8257598 77.7945323,69.8257598" id="Fill-22" fill="#434143"></path>
                    <path d="M48.6178571,115.249873 C48.6178571,116.396128 49.5524079,117.326203 50.7041786,117.326203 C51.8559492,117.326203 52.7905,116.396128 52.7905,115.249873 C52.7905,114.103618 51.8559492,113.173543 50.7041786,113.173543 C49.5524079,113.173543 48.6178571,114.103618 48.6178571,115.249873" id="Fill-24" fill="#FFFFFF"></path>
                    <path d="M100.412429,116.287787 C100.412429,117.434041 101.34698,118.364116 102.498751,118.364116 C103.650521,118.364116 104.585072,117.434041 104.585072,116.287787 C104.585072,115.141532 103.650521,114.211457 102.498751,114.211457 C101.34698,114.211457 100.412429,115.141532 100.412429,116.287787" id="Fill-26" fill="#FFFFFF"></path>
                    <path d="M44.4464771,103.141804 C44.4464771,103.714931 44.9137525,104.179969 45.4896378,104.179969 C46.0655232,104.179969 46.5327985,103.714931 46.5327985,103.141804 C46.5327985,102.568676 46.0655232,102.103639 45.4896378,102.103639 C44.9137525,102.103639 44.4464771,102.568676 44.4464771,103.141804" id="Fill-28" fill="#FFFFFF"></path>
                    <path d="M110.833933,105.728921 C110.833933,106.302048 111.301209,106.767085 111.877094,106.767085 C112.452979,106.767085 112.920255,106.302048 112.920255,105.728921 C112.920255,105.155793 112.452979,104.690756 111.877094,104.690756 C111.301209,104.690756 110.833933,105.155793 110.833933,105.728921" id="Fill-30" fill="#FFFFFF"></path>
                    <path d="M120.328464,118.219075 C120.328464,118.792202 120.795739,119.25724 121.371625,119.25724 C121.94751,119.25724 122.414785,118.792202 122.414785,118.219075 C122.414785,117.645948 121.94751,117.18091 121.371625,117.18091 C120.795739,117.18091 120.328464,117.645948 120.328464,118.219075" id="Fill-32" fill="#FFFFFF"></path>
                </g>
            </g>
        </g>
    </g>
</svg>